<?xml version="1.0" encoding="utf-8"?>
<!-- Generator: Adobe Illustrator 16.0.0, SVG Export Plug-In . SVG Version: 6.00 Build 0)  -->
<!DOCTYPE svg PUBLIC "-//W3C//DTD SVG 1.1//EN" "http://www.w3.org/Graphics/SVG/1.1/DTD/svg11.dtd">
<svg version="1.1" id="Capa_1" xmlns="http://www.w3.org/2000/svg" xmlns:xlink="http://www.w3.org/1999/xlink" x="0px" y="0px"
	 width="233.5px" height="184px" viewBox="111 -20 233.5 184" enable-background="new 111 -20 233.5 184" xml:space="preserve">
<path id="b1" fill="#0E94EC" d="M246.961,83.037h-38.922c-3.909,0-7.077-3.168-7.077-7.076V37.039c0-3.908,3.168-7.077,7.077-7.077h38.922
	c3.908,0,7.076,3.168,7.076,7.077v38.922C254.037,79.869,250.869,83.037,246.961,83.037z"/>
<path id="b2" fill="#65B8EE" d="M246.961,77.73h-38.922c-0.977,0-1.77-0.793-1.77-1.77V37.039c0-0.977,0.792-1.769,1.77-1.769h38.922
	c0.977,0,1.77,0.792,1.77,1.769v38.922C248.73,76.938,247.938,77.73,246.961,77.73z"/>
<g>
	<circle id="c3" fill="#0E94EC" cx="179.732" cy="42.346" r="3.538"/>
	<circle id="c7" fill="#0E94EC" cx="275.269" cy="70.653" r="3.538"/>
</g>
<g>
	<circle id="c2" fill="#0E94EC" cx="176.193" cy="86.575" r="3.538"/>
	<circle id="c6" fill="#0E94EC" cx="278.807" cy="26.425" r="3.538"/>
</g>
<g>
	<circle id="c1" fill="#0E94EC" cx="213.346" cy="104.269" r="3.538"/>
	<circle id="c5" fill="#0E94EC" cx="241.653" cy="8.732" r="3.538"/>
</g>
<g>
	<circle id="c4" fill="#0E94EC" cx="197.425" cy="5.194" r="3.538"/>
	<circle id="c8" fill="#0E94EC" cx="257.574" cy="107.807" r="3.538"/>
</g>
<path id="b3" fill="#C4E6FC" d="M227.5,71.563c0.504,0,0.984,0.215,1.32,0.591c1.155,1.296,2.85,2.038,4.65,2.038
	c3.096,0,5.696-2.167,5.92-4.934c0.046-0.576,0.373-1.094,0.872-1.385c1.948-1.139,3.159-3.123,3.159-5.182
	c0-1.484-0.618-2.927-1.742-4.063c-0.683-0.689-0.683-1.8,0-2.489c1.124-1.135,1.742-2.578,1.742-4.063
	c0-2.672-1.949-5.027-4.853-5.86c-0.903-0.259-1.446-1.182-1.235-2.099c0.08-0.345,0.117-0.627,0.117-0.887
	c0-2.438-2.232-4.423-4.976-4.423c-1.419,0-2.776,0.545-3.722,1.496c-0.666,0.667-1.841,0.667-2.508,0
	c-0.945-0.951-2.303-1.496-3.722-1.496c-2.744,0-4.976,1.984-4.976,4.423c0,0.292,0.033,0.586,0.095,0.872
	c0.2,0.912-0.34,1.823-1.239,2.081c-2.887,0.832-4.827,3.2-4.827,5.894c0,1.288,0.463,2.53,1.339,3.593
	c0.52,0.633,0.539,1.541,0.043,2.193c-0.903,1.194-1.382,2.559-1.382,3.944c0,2.208,1.195,4.323,3.2,5.659
	c0.487,0.325,0.782,0.871,0.788,1.458c0.024,2.904,2.701,5.267,5.964,5.267c1.8,0,3.495-0.742,4.651-2.039
	C226.515,71.777,226.995,71.563,227.5,71.563z"/>
<path d="M282.344,54.845h-26.65v-3.766h7.189c0.914,0,1.656-0.741,1.656-1.655s-0.742-1.655-1.656-1.655h-7.189v-3.766h4.992
	c1.859,0,3.607-0.724,4.923-2.04l10.886-10.886c0.71,0.354,1.496,0.542,2.313,0.542c1.387,0,2.691-0.541,3.672-1.521
	c0.981-0.981,1.521-2.285,1.521-3.673c0-1.387-0.54-2.691-1.521-3.672c-0.98-0.981-2.285-1.521-3.672-1.521
	c-1.388,0-2.691,0.54-3.673,1.521s-1.521,2.285-1.521,3.672c0,0.815,0.188,1.602,0.542,2.312l-10.887,10.886
	c-0.689,0.69-1.607,1.07-2.583,1.07h-4.992v-3.652c0-4.815-3.917-8.732-8.731-8.732h-3.652V13.654
	c2.055-0.693,3.538-2.637,3.538-4.922c0-2.864-2.33-5.193-5.193-5.193c-2.864,0-5.194,2.33-5.194,5.193
	c0,2.285,1.484,4.229,3.539,4.922v14.653h-3.766v-7.191c0-0.914-0.742-1.655-1.656-1.655s-1.654,0.741-1.654,1.655v7.191h-3.767
	V1.655c0-0.914-0.741-1.655-1.655-1.655c-0.915,0-1.655,0.741-1.655,1.655v26.652h-3.766v-7.191c0-0.914-0.741-1.655-1.655-1.655
	c-0.915,0-1.655,0.741-1.655,1.655v7.191h-3.766v-4.992c0-1.86-0.725-3.608-2.04-4.923l-10.89-10.89
	c0.962-1.942,0.64-4.364-0.976-5.98c-2.025-2.025-5.32-2.025-7.345,0s-2.025,5.32,0,7.345c1.013,1.012,2.343,1.519,3.672,1.519
	c0.792,0,1.583-0.184,2.308-0.543l10.89,10.89c0.69,0.69,1.07,1.607,1.07,2.583v4.992h-3.652c-0.738,0-1.473,0.093-2.182,0.275
	c-0.885,0.228-1.418,1.13-1.19,2.016c0.228,0.885,1.13,1.418,2.016,1.19c0.44-0.113,0.896-0.171,1.357-0.171h38.922
	c2.989,0,5.421,2.432,5.421,5.421v38.922c0,0.459-0.058,0.916-0.171,1.355c-0.227,0.886,0.307,1.788,1.191,2.016
	c0.139,0.035,0.277,0.053,0.414,0.053c0.736,0,1.409-0.496,1.602-1.244c0.182-0.709,0.274-1.442,0.274-2.18v-3.652h14.653
	c0.693,2.055,2.637,3.538,4.922,3.538c2.863,0,5.193-2.329,5.193-5.193s-2.33-5.194-5.193-5.194c-2.285,0-4.229,1.484-4.922,3.539
	h-14.653v-3.767h7.19c0.914,0,1.656-0.741,1.656-1.655s-0.742-1.655-1.656-1.655h-7.19v-3.766h26.651
	c0.914,0,1.656-0.741,1.656-1.655S283.258,54.845,282.344,54.845z M277.475,25.093c0.355-0.356,0.828-0.552,1.332-0.552
	c0.502,0,0.975,0.196,1.331,0.552c0.355,0.355,0.552,0.828,0.552,1.331s-0.196,0.976-0.552,1.332
	c-0.356,0.356-0.829,0.552-1.331,0.552c-0.504,0-0.977-0.196-1.332-0.552l0,0c-0.355-0.355-0.552-0.829-0.552-1.332
	S277.119,25.448,277.475,25.093z M241.653,6.849c1.038,0,1.883,0.845,1.883,1.883c0,1.039-0.845,1.883-1.883,1.883
	s-1.884-0.845-1.884-1.883C239.77,7.694,240.615,6.849,241.653,6.849z M196.092,6.525c-0.734-0.734-0.734-1.929,0-2.663
	c0.367-0.367,0.849-0.55,1.332-0.55s0.964,0.184,1.332,0.55c0.734,0.734,0.734,1.929,0,2.664l0,0
	C198.021,7.26,196.827,7.26,196.092,6.525z M275.268,68.771c1.039,0,1.883,0.845,1.883,1.883s-0.845,1.884-1.883,1.884
	s-1.883-0.846-1.883-1.884S274.229,68.771,275.268,68.771z"/>
<path d="M255.269,103.158l-10.89-10.891c-0.69-0.689-1.07-1.607-1.07-2.582v-4.992h3.652c0.738,0,1.473-0.094,2.182-0.275
	c0.885-0.229,1.418-1.131,1.19-2.016c-0.228-0.886-1.13-1.418-2.016-1.191c-0.44,0.113-0.896,0.172-1.356,0.172h-38.922
	c-2.99,0-5.421-2.433-5.421-5.422V37.039c0-0.46,0.057-0.917,0.17-1.356c0.228-0.885-0.305-1.788-1.19-2.016
	c-0.886-0.228-1.788,0.305-2.016,1.19c-0.183,0.709-0.275,1.443-0.275,2.182v3.652h-14.654c-0.692-2.054-2.636-3.539-4.921-3.539
	c-2.864,0-5.194,2.33-5.194,5.194s2.33,5.193,5.194,5.193c2.285,0,4.229-1.484,4.921-3.538h14.653v3.766h-7.19
	c-0.914,0-1.655,0.741-1.655,1.655s0.741,1.655,1.655,1.655h7.19v3.766h-26.651c-0.914,0-1.655,0.741-1.655,1.655
	s0.741,1.655,1.655,1.655h26.651v3.767h-7.19c-0.914,0-1.655,0.74-1.655,1.654s0.741,1.656,1.655,1.656h7.19v3.766h-4.992
	c-1.86,0-3.608,0.725-4.923,2.039l-10.886,10.887c-0.709-0.354-1.496-0.541-2.312-0.541c-1.387,0-2.691,0.54-3.672,1.521
	C171.54,83.885,171,85.189,171,86.576s0.54,2.691,1.521,3.672c0.98,0.981,2.285,1.521,3.672,1.521s2.691-0.54,3.672-1.521
	c0.981-0.98,1.521-2.285,1.521-3.672c0-0.816-0.188-1.603-0.542-2.312l10.886-10.886c0.69-0.69,1.607-1.07,2.583-1.07h4.992v3.652
	c0,4.814,3.917,8.731,8.732,8.731h3.652v14.653c-2.054,0.693-3.538,2.637-3.538,4.922c0,2.863,2.33,5.193,5.193,5.193
	c2.864,0,5.194-2.33,5.194-5.193c0-2.285-1.484-4.229-3.539-4.922V84.692h3.766v7.19c0,0.914,0.741,1.656,1.655,1.656
	s1.655-0.742,1.655-1.656v-7.19h3.766v26.652c0,0.914,0.741,1.655,1.655,1.655c0.914,0,1.655-0.741,1.655-1.655V84.693h3.766v7.19
	c0,0.914,0.741,1.655,1.655,1.655s1.655-0.741,1.655-1.655v-7.19h3.767v4.992c0,1.859,0.725,3.607,2.039,4.923l10.891,10.89
	c-0.963,1.943-0.641,4.365,0.976,5.98c1.013,1.013,2.343,1.519,3.673,1.519s2.66-0.506,3.672-1.519c2.025-2.025,2.025-5.32,0-7.345
	C259.633,102.518,257.211,102.195,255.269,103.158z M179.732,44.229c-1.039,0-1.883-0.845-1.883-1.883
	c0-1.039,0.845-1.883,1.883-1.883s1.883,0.845,1.883,1.883C181.615,43.385,180.771,44.229,179.732,44.229z M177.525,87.907
	c-0.355,0.356-0.828,0.552-1.332,0.552c-0.503,0-0.976-0.195-1.331-0.552c-0.356-0.355-0.552-0.828-0.552-1.331
	s0.196-0.977,0.552-1.332c0.355-0.355,0.828-0.551,1.331-0.551c0.503,0,0.976,0.195,1.332,0.551l0,0
	c0.356,0.355,0.552,0.829,0.552,1.332S177.881,87.552,177.525,87.907z M213.346,106.15c-1.038,0-1.883-0.844-1.883-1.883
	c0-1.038,0.845-1.883,1.883-1.883c1.039,0,1.883,0.845,1.883,1.883C215.229,105.307,214.385,106.15,213.346,106.15z
	 M258.908,109.138c-0.734,0.734-1.93,0.733-2.664,0c-0.734-0.734-0.734-1.929,0-2.663c0.367-0.367,0.85-0.551,1.332-0.551
	s0.965,0.184,1.332,0.551C259.642,107.209,259.642,108.403,258.908,109.138z"/>
<path d="M213.903,68.881c0,0.001,0,0.002,0,0.004c0,3.839,3.421,6.963,7.626,6.963c2.417,0,4.573-1.033,5.971-2.64
	c1.398,1.606,3.555,2.64,5.971,2.64c4.047,0,7.366-2.895,7.61-6.533c2.458-1.427,3.997-3.925,3.997-6.622
	c0-1.984-0.847-3.877-2.303-5.308c1.456-1.431,2.303-3.324,2.303-5.308c0-3.54-2.59-6.539-6.135-7.513
	c0.105-0.433,0.164-0.878,0.164-1.333c0-3.352-2.976-6.079-6.632-6.079c-1.98,0-3.76,0.801-4.976,2.067
	c-1.216-1.266-2.996-2.067-4.976-2.067c-3.657,0-6.631,2.727-6.631,6.079c0,0.455,0.059,0.9,0.163,1.333
	c-3.544,0.974-6.134,3.973-6.134,7.513c0,1.73,0.612,3.363,1.743,4.71c-1.106,1.432-1.743,3.169-1.743,5.021
	C209.922,64.622,211.426,67.25,213.903,68.881z M218.502,47.541c0.015,0,0.03,0.002,0.044,0.002c0.378,0,0.758-0.128,1.068-0.392
	c0.635-0.537,0.762-1.449,0.336-2.134c-0.012-0.021-0.024-0.041-0.037-0.061c-0.007-0.01-0.015-0.02-0.022-0.029
	c-0.026-0.036-0.052-0.071-0.081-0.105c-0.001-0.001-0.001-0.002-0.002-0.003c-0.276-0.327-0.605-0.867-0.605-1.588
	c0-1.526,1.49-2.768,3.32-2.768c1.831,0,3.321,1.242,3.321,2.768c0,0.915,0.741,1.655,1.655,1.655s1.655-0.741,1.655-1.655
	c0-1.526,1.49-2.768,3.32-2.768c1.831,0,3.32,1.242,3.32,2.768c0,0.408-0.106,0.756-0.248,1.042
	c-0.941,0.089-1.852,0.316-2.717,0.681c-0.842,0.355-1.236,1.326-0.882,2.168c0.355,0.842,1.326,1.237,2.169,0.882
	c0.715-0.302,1.484-0.457,2.288-0.463c0.016,0,0.031,0.002,0.048,0.002c0.014,0,0.029-0.002,0.043-0.002
	c2.91,0.019,5.271,2.046,5.271,4.536c0,1.565-0.952,3.001-2.548,3.844c-0.543,0.286-0.883,0.85-0.883,1.464
	c0,0.613,0.34,1.178,0.883,1.464c1.596,0.842,2.548,2.278,2.548,3.844c0,1.167-0.542,2.28-1.458,3.112
	c-0.871-1.611-2.408-2.895-4.352-3.505c-0.872-0.274-1.802,0.211-2.076,1.083c-0.273,0.872,0.211,1.801,1.084,2.075
	c1.688,0.53,2.82,1.907,2.82,3.427c0,2.014-1.936,3.652-4.314,3.652c-2.381,0-4.316-1.639-4.316-3.652V58.27
	c0-2.014,1.936-3.652,4.316-3.652c0.914,0,1.654-0.741,1.654-1.655s-0.74-1.655-1.654-1.655c-1.602,0-3.088,0.454-4.316,1.227
	v-2.114c0-0.914-0.741-1.655-1.655-1.655s-1.655,0.741-1.655,1.655v9.189c-0.557-0.35-1.168-0.64-1.829-0.847
	c-0.873-0.274-1.801,0.211-2.075,1.082c-0.274,0.873,0.211,1.802,1.083,2.076c1.688,0.53,2.821,1.907,2.821,3.426v3.539
	c0,2.014-1.936,3.652-4.315,3.652c-2.38,0-4.316-1.639-4.316-3.652c0-0.863,0.366-1.703,1.03-2.363
	c0.648-0.645,0.651-1.692,0.007-2.341c-0.644-0.648-1.692-0.651-2.34-0.007c-0.397,0.395-0.738,0.825-1.022,1.283
	c-1.045-0.989-1.656-2.29-1.656-3.649c0-2.452,1.925-4.606,4.681-5.239c0.891-0.205,1.448-1.093,1.243-1.983
	c-0.204-0.892-1.092-1.448-1.983-1.244c-1.109,0.255-2.131,0.68-3.037,1.237c-0.587-0.738-0.903-1.602-0.903-2.501
	C213.232,49.587,215.593,47.56,218.502,47.541z"/>
<g>
	<path d="M142.161,122.268v22.398h-1.568v-22.398H142.161z"/>
	<path d="M148.625,123.708c0,1.663-2.528,1.663-2.528,0C146.097,122.044,148.625,122.044,148.625,123.708z M146.545,128.795v15.871
		h1.568v-15.871H146.545z"/>
	<path d="M176.015,144.666v-9.472c0-3.039-2.048-5.184-5.056-5.184s-5.087,2.24-5.087,5.28v9.375h-1.568v-9.375
		c0-3.04-2.08-5.248-5.088-5.248s-5.056,2.208-5.056,5.248v9.375h-1.568v-15.807h1.472l0.032,2.624
		c1.088-2.08,3.104-2.944,5.152-2.944c2.4,0,4.928,1.088,5.855,3.904c0.96-2.592,3.424-3.904,5.855-3.904
		c3.872,0,6.624,2.72,6.624,6.655v9.472H176.015z"/>
	<path d="M183.537,122.268v10.047c1.28-2.56,3.839-3.711,6.56-3.711c4.416,0,7.935,2.943,7.935,8.159
		c0,5.247-3.488,8.159-7.903,8.159c-2.688,0-5.28-1.344-6.591-3.743v3.487H182v-22.398H183.537z M183.568,136.73
		c0,3.936,2.752,6.655,6.464,6.655c3.552,0,6.463-2.239,6.463-6.623c0-4.448-2.912-6.655-6.463-6.655
		C186.384,130.107,183.568,132.795,183.568,136.73z"/>
	<path d="M200.976,136.763c0-4.735,3.584-8.159,8.032-8.159s8.415,2.72,7.807,8.895h-14.239c0.32,3.712,3.167,5.856,6.432,5.856
		c2.08,0,4.512-0.832,5.695-2.4l1.12,0.896c-1.536,2.016-4.288,3.039-6.815,3.039C204.56,144.89,200.976,141.786,200.976,136.763z
		 M215.407,136.123c-0.032-3.904-2.592-6.08-6.399-6.08c-3.264,0-6.08,2.208-6.432,6.08H215.407z"/>
	<path d="M222.416,128.859v2.815c1.216-2.176,3.424-3.071,5.631-3.104c4.225,0,7.137,2.592,7.137,6.976v9.119h-1.568v-9.087
		c0-3.584-2.208-5.504-5.632-5.472c-3.264,0.031-5.536,2.495-5.536,5.759v8.8h-1.568v-15.807H222.416z"/>
	<path d="M241.137,128.827v17.375c0.031,3.039-0.705,5.407-4.225,5.407c-1.088,0-1.888-0.256-2.848-0.768l0.447-1.344
		c0.736,0.416,1.568,0.64,2.4,0.64c2.432,0,2.688-1.792,2.688-3.936v-17.375H241.137z M239.088,123.548c0,1.663,2.527,1.663,2.527,0
		C241.615,121.884,239.088,121.884,239.088,123.548z"/>
	<path d="M260.592,128.859c0,5.279,0,10.527,0,15.807h-1.568v-3.359c-1.535,2.464-3.904,3.615-6.463,3.615
		c-4.416,0-8.033-3.328-8.033-8.159c0-4.832,3.617-8.096,8.033-8.096c2.559,0,5.15,1.185,6.463,3.647v-3.455H260.592z
		 M246.096,136.763c0,3.968,2.881,6.623,6.465,6.623c8.799,0,8.799-13.215,0-13.215
		C248.977,130.171,246.096,132.795,246.096,136.763z"/>
	<path d="M288.27,144.666v-9.472c0-3.039-2.047-5.184-5.055-5.184s-5.088,2.24-5.088,5.28v9.375h-1.568v-9.375
		c0-3.04-2.08-5.248-5.088-5.248s-5.055,2.208-5.055,5.248v9.375h-1.568v-15.807h1.471l0.033,2.624
		c1.088-2.08,3.104-2.944,5.15-2.944c2.4,0,4.928,1.088,5.855,3.904c0.961-2.592,3.424-3.904,5.857-3.904
		c3.871,0,6.623,2.72,6.623,6.655v9.472H288.27z"/>
	<path d="M296.336,123.708c0,1.663-2.529,1.663-2.529,0C293.807,122.044,296.336,122.044,296.336,123.708z M294.256,128.795v15.871
		h1.568v-15.871H294.256z"/>
	<path d="M301.838,128.859v2.815c1.217-2.176,3.424-3.071,5.633-3.104c4.223,0,7.135,2.592,7.135,6.976v9.119h-1.568v-9.087
		c0-3.584-2.207-5.504-5.631-5.472c-3.264,0.031-5.535,2.495-5.535,5.759v8.8h-1.568v-15.807H301.838z"/>
</g>
</svg>
