<?xml version="1.0" encoding="utf-8"?>
<!-- Generator: Adobe Illustrator 20.1.0, SVG Export Plug-In . SVG Version: 6.00 Build 0)  -->
<svg version="1.1" id="Layer_1" xmlns="http://www.w3.org/2000/svg" xmlns:xlink="http://www.w3.org/1999/xlink" x="0px" y="0px"
	 viewBox="0 0 22 16" style="enable-background:new 0 0 22 16;" xml:space="preserve">
<style type="text/css">
	.st0{fill:#FFFFFF;}
</style>
<g>
	<g>
		<path class="st0" d="M21,2H1C0.4,2,0,1.6,0,1s0.4-1,1-1h20c0.6,0,1,0.4,1,1S21.6,2,21,2z"/>
	</g>
	<g>
		<path class="st0" d="M21,9H1C0.4,9,0,8.6,0,8s0.4-1,1-1h20c0.6,0,1,0.4,1,1S21.6,9,21,9z"/>
	</g>
	<g>
		<path class="st0" d="M21,16H1c-0.6,0-1-0.4-1-1s0.4-1,1-1h20c0.6,0,1,0.4,1,1S21.6,16,21,16z"/>
	</g>
</g>
</svg>
