<?xml version="1.0" encoding="utf-8"?>
<!-- Generator: Adobe Illustrator 20.1.0, SVG Export Plug-In . SVG Version: 6.00 Build 0)  -->
<svg version="1.1" id="Layer_1" xmlns="http://www.w3.org/2000/svg" xmlns:xlink="http://www.w3.org/1999/xlink" x="0px" y="0px"
	 viewBox="0 0 432.658 61.256" style="enable-background:new 0 0 432.658 61.256;" xml:space="preserve">
<style type="text/css">
	.st0{fill:#FFFFFF;}
</style>
<g>
	<g>
		<path class="st0" d="M145.143,27.396v20.53h-8.598v-19.93c0-3.933-1.999-6.333-5.599-6.333c-3.799,0-6.199,2.533-6.199,7.533
			v18.73h-8.599v-19.93c0-3.933-1.999-6.333-5.599-6.333c-3.666,0-6.265,2.533-6.265,7.533v18.73h-8.599V14.598h8.599v3.533
			c1.866-2.8,4.999-4.466,9.265-4.466c4.133,0,7.199,1.733,9.065,4.799c2.066-3,5.399-4.799,9.931-4.799
			C140.144,13.665,145.143,19.064,145.143,27.396z"/>
		<path class="st0" d="M149.527,31.262c0-9.932,7.799-17.597,17.597-17.597c9.798,0,17.664,7.665,17.664,17.597
			s-7.865,17.597-17.664,17.597C157.326,48.859,149.527,41.194,149.527,31.262z M176.19,31.262c0-5.399-3.932-9.199-9.065-9.199
			c-5.066,0-8.998,3.8-8.998,9.199s3.932,9.199,8.998,9.199C172.257,40.461,176.19,36.661,176.19,31.262z"/>
		<path class="st0" d="M200.691,22.863v13.865c0,3.599,2.6,3.666,7.532,3.399v7.799c-12.065,1.333-16.131-2.2-16.131-11.198V22.863
			h-5.799v-8.265h5.799V7.866l8.598-2.6v9.332h7.532v8.265H200.691z"/>
		<path class="st0" d="M245.304,27.463v20.463h-8.599V28.529c0-4.533-2.733-6.866-6.599-6.866c-4.199,0-7.332,2.467-7.332,8.266
			v17.997h-8.599V1.267h8.599v17.064c2-3,5.466-4.666,9.932-4.666C239.771,13.665,245.304,18.597,245.304,27.463z"/>
		<path class="st0" d="M268.986,41.06c3.333,0,5.999-1.399,7.465-3.332l6.933,3.999c-3.133,4.533-8.133,7.132-14.532,7.132
			c-11.198,0-18.263-7.665-18.263-17.597s7.132-17.597,17.597-17.597c9.865,0,16.864,7.798,16.864,17.597
			c0,1.266-0.133,2.4-0.333,3.533h-25.13C260.787,39.194,264.453,41.06,268.986,41.06z M276.451,28.129
			c-1.066-4.799-4.666-6.732-8.265-6.732c-4.599,0-7.732,2.466-8.732,6.732H276.451z"/>
		<path class="st0" d="M309.005,13.931v9.599c-4.466-0.533-10.132,1.466-10.132,8.465v15.931h-8.598V14.598h8.598v5.732
			C300.606,15.798,304.806,13.931,309.005,13.931z"/>
		<path class="st0" d="M338.18,38.194c0,7.199-6.266,10.665-13.398,10.665c-6.665,0-11.598-2.799-13.998-7.932l7.466-4.199
			c0.933,2.733,3.199,4.332,6.532,4.332c2.733,0,4.599-0.933,4.599-2.866c0-4.866-17.197-2.199-17.197-13.931
			c0-6.799,5.799-10.598,12.665-10.598c5.399,0,10.065,2.466,12.665,7.065l-7.333,4c-0.999-2.133-2.866-3.4-5.332-3.4
			c-2.133,0-3.866,0.933-3.866,2.733C320.983,28.996,338.18,25.929,338.18,38.194z"/>
		<path class="st0" d="M373.867,27.463v20.463h-8.598V28.529c0-4.533-2.733-6.866-6.599-6.866c-4.2,0-7.333,2.467-7.333,8.266
			v17.997h-8.598V1.267h8.598v17.064c2-3,5.466-4.666,9.932-4.666C368.335,13.665,373.867,18.597,373.867,27.463z"/>
		<path class="st0" d="M379.952,5.333c0-2.867,2.4-5.333,5.266-5.333c2.933,0,5.332,2.466,5.332,5.333
			c0,2.866-2.399,5.266-5.332,5.266C382.352,10.599,379.952,8.199,379.952,5.333z M380.952,14.598h8.598v33.328h-8.598V14.598z"/>
		<path class="st0" d="M432.658,31.262c0,9.932-7.332,17.597-16.264,17.597c-4.866,0-8.399-1.8-10.799-4.866v17.264h-8.598V14.598
			h8.598v3.933c2.4-3.067,5.933-4.866,10.799-4.866C425.326,13.665,432.658,21.33,432.658,31.262z M424.059,31.262
			c0-5.599-3.933-9.399-9.265-9.399c-5.266,0-9.199,3.8-9.199,9.399s3.933,9.398,9.199,9.398
			C420.126,40.66,424.059,36.861,424.059,31.262z"/>
	</g>
	<g>
		<path class="st0" d="M74.167,27.863c0-14.049-12.88-25.479-28.712-25.479c-21.496,0-42.069,21.841-42.935,22.771L0,27.863
			l2.52,2.708c0.58,0.623,10.006,10.621,22.624,17.16v0.742c0,5.138,3.393,9.162,7.725,9.162h14.715c3.283,0,6.023-2.314,7.16-5.67
			C66.029,48.531,74.167,39.027,74.167,27.863z M45.455,45.39c-13.912,0-28.352-11.942-34.299-17.478
			c19.072,5.413,40.557,5.339,55.057-0.104c0,0.019,0.003,0.037,0.003,0.055C66.216,37.527,56.903,45.39,45.455,45.39z"/>
		<path class="st0" d="M14.534,10.394C12.152,7.556,7.21,6.841,4.067,9.478c-3.143,2.637-3.297,7.628-0.916,10.466L14.534,10.394z"
			/>
		<path class="st0" d="M4.067,46.133c3.143,2.638,8.085,1.922,10.467-0.916L3.151,35.666C0.77,38.504,0.924,43.495,4.067,46.133z"/>
	</g>
</g>
</svg>
