<?xml version="1.0" encoding="utf-8"?>
<!-- Generator: Adobe Illustrator 20.1.0, SVG Export Plug-In . SVG Version: 6.00 Build 0)  -->
<svg version="1.1" id="Layer_1" xmlns="http://www.w3.org/2000/svg" xmlns:xlink="http://www.w3.org/1999/xlink" x="0px" y="0px"
	 viewBox="0 0 22 16.2" style="enable-background:new 0 0 22 16.2;" xml:space="preserve">
<style type="text/css">
	.st0{fill:#FFFFFF;}
</style>
<path class="st0" d="M18.8,14.5L15.3,11c0.9-1.1,1.4-2.6,1.4-4.1c0-3.8-3.1-6.9-6.9-6.9C6,0,2.9,3.1,2.9,6.9c0,3.8,3.1,6.9,6.9,6.9
	c1.5,0,3-0.5,4.1-1.4l3.5,3.5c0.2,0.2,0.5,0.3,0.7,0.3s0.5-0.1,0.7-0.3C19.2,15.5,19.2,14.9,18.8,14.5z M9.8,11.7
	c-2.7,0-4.9-2.2-4.9-4.9C4.9,4.2,7.1,2,9.8,2s4.9,2.2,4.9,4.9C14.6,9.6,12.5,11.7,9.8,11.7z"/>
</svg>
