<?xml version="1.0" encoding="utf-8"?>
<!-- Generator: Adobe Illustrator 16.0.4, SVG Export Plug-In . SVG Version: 6.00 Build 0)  -->
<!DOCTYPE svg PUBLIC "-//W3C//DTD SVG 1.1//EN" "http://www.w3.org/Graphics/SVG/1.1/DTD/svg11.dtd" [
	<!ENTITY ns_flows "http://ns.adobe.com/Flows/1.0/">
	<!ENTITY ns_extend "http://ns.adobe.com/Extensibility/1.0/">
	<!ENTITY ns_ai "http://ns.adobe.com/AdobeIllustrator/10.0/">
	<!ENTITY ns_graphs "http://ns.adobe.com/Graphs/1.0/">
]>
<svg version="1.1" id="Layer_1" xmlns:x="&ns_extend;" xmlns:i="&ns_ai;" xmlns:graph="&ns_graphs;"
	 xmlns="http://www.w3.org/2000/svg" xmlns:xlink="http://www.w3.org/1999/xlink" xmlns:a="http://ns.adobe.com/AdobeSVGViewerExtensions/3.0/"
	 x="0px" y="0px" width="44px" height="39px" viewBox="0 0 44 39" enable-background="new 0 0 44 39" xml:space="preserve">
<g>
	<defs>
		<path id="SVGID_1_" d="M12.458,29.604v9.249h2.508v-7.941c0.289-0.188,0.915-0.28,1.349-0.28c1.399,0,1.688,0.747,1.688,2.009
			v6.166h2.556v-6.399c0-0.514-0.05-0.98-0.145-1.449c-0.178-0.683-0.507-1.292-1.109-1.728c-0.531-0.327-1.351-0.561-2.459-0.561
			C15.255,28.67,13.567,28.996,12.458,29.604"/>
	</defs>
	<clipPath id="SVGID_2_">
		<use xlink:href="#SVGID_1_"  overflow="visible"/>
	</clipPath>
	
		<linearGradient id="SVGID_3_" gradientUnits="userSpaceOnUse" x1="-518.7925" y1="443.1621" x2="-518.6694" y2="443.1621" gradientTransform="matrix(0 82.7393 82.7393 0 -36650.375 42953.25)">
		<stop  offset="0" style="stop-color:#534B48"/>
		<stop  offset="0.1649" style="stop-color:#4E4744"/>
		<stop  offset="0.4353" style="stop-color:#423C39"/>
		<stop  offset="0.7756" style="stop-color:#2F2927"/>
		<stop  offset="0.9989" style="stop-color:#1E1816"/>
		<stop  offset="1" style="stop-color:#1E1816"/>
		<a:midPointStop  offset="0" style="stop-color:#534B48"/>
		<a:midPointStop  offset="0.5987" style="stop-color:#534B48"/>
		<a:midPointStop  offset="0.9989" style="stop-color:#1E1816"/>
		<a:midPointStop  offset="0.5" style="stop-color:#1E1816"/>
		<a:midPointStop  offset="1" style="stop-color:#1E1816"/>
	</linearGradient>
	<rect x="12.458" y="28.67" clip-path="url(#SVGID_2_)" fill="url(#SVGID_3_)" width="8.101" height="10.184"/>
</g>
<g>
	<defs>
		<path id="SVGID_4_" d="M24.639,35.683c0-1.027,0.385-1.355,1.254-1.542c0.723-0.188,1.334-0.188,2.105-0.233v2.85
			c-0.58,0.233-1.047,0.28-1.625,0.28C25.264,37.037,24.639,36.757,24.639,35.683 M22.693,29.173l0.01,1.981
			c1.081-0.356,2.209-0.518,3.415-0.518c1.35,0,1.881,0.514,1.881,1.683c-1.158,0.046-1.963,0.046-3.023,0.233
			c-2.025,0.279-2.795,1.4-2.795,3.177c0,2.148,1.42,3.258,3.905,3.27c1.832,0,3.264-0.327,4.373-0.934v-6.167
			c0-2.615-1.881-3.224-4.148-3.224C24.816,28.675,23.66,28.898,22.693,29.173"/>
	</defs>
	<clipPath id="SVGID_5_">
		<use xlink:href="#SVGID_4_"  overflow="visible"/>
	</clipPath>
	
		<linearGradient id="SVGID_6_" gradientUnits="userSpaceOnUse" x1="-518.8096" y1="442.2852" x2="-518.6865" y2="442.2852" gradientTransform="matrix(0 83.8784 83.8784 0 -37071.875 43545.625)">
		<stop  offset="0" style="stop-color:#534B48"/>
		<stop  offset="0.1649" style="stop-color:#4E4744"/>
		<stop  offset="0.4353" style="stop-color:#423C39"/>
		<stop  offset="0.7756" style="stop-color:#2F2927"/>
		<stop  offset="0.9989" style="stop-color:#1E1816"/>
		<stop  offset="1" style="stop-color:#1E1816"/>
		<a:midPointStop  offset="0" style="stop-color:#534B48"/>
		<a:midPointStop  offset="0.5987" style="stop-color:#534B48"/>
		<a:midPointStop  offset="0.9989" style="stop-color:#1E1816"/>
		<a:midPointStop  offset="0.5" style="stop-color:#1E1816"/>
		<a:midPointStop  offset="1" style="stop-color:#1E1816"/>
	</linearGradient>
	<rect x="22.179" y="28.675" clip-path="url(#SVGID_5_)" fill="url(#SVGID_6_)" width="8.278" height="10.324"/>
</g>
<g>
	<defs>
		<path id="SVGID_7_" d="M2.743,33.711c0,2.709,0.53,5.277,3.953,5.277c1.351,0,2.972-0.263,3.84-0.496l-0.004-2.14
			c-0.626,0.141-1.779,0.411-2.406,0.411c-2.556,0-2.78-0.857-2.78-3.1c0-2.382,0.418-3.021,2.78-2.96
			c0.786,0.021,1.326,0.121,2.395,0.436l0.015-2.023c-0.724-0.187-2.103-0.498-3.261-0.498C3.514,28.618,2.743,30.44,2.743,33.711"
			/>
	</defs>
	<clipPath id="SVGID_8_">
		<use xlink:href="#SVGID_7_"  overflow="visible"/>
	</clipPath>
	
		<linearGradient id="SVGID_9_" gradientUnits="userSpaceOnUse" x1="-518.8101" y1="443.9395" x2="-518.687" y2="443.9395" gradientTransform="matrix(0 84.2574 84.2574 0 -37398.5 43742.1875)">
		<stop  offset="0" style="stop-color:#534B48"/>
		<stop  offset="0.1649" style="stop-color:#4E4744"/>
		<stop  offset="0.4353" style="stop-color:#423C39"/>
		<stop  offset="0.7756" style="stop-color:#2F2927"/>
		<stop  offset="0.9989" style="stop-color:#1E1816"/>
		<stop  offset="1" style="stop-color:#1E1816"/>
		<a:midPointStop  offset="0" style="stop-color:#534B48"/>
		<a:midPointStop  offset="0.5987" style="stop-color:#534B48"/>
		<a:midPointStop  offset="0.9989" style="stop-color:#1E1816"/>
		<a:midPointStop  offset="0.5" style="stop-color:#1E1816"/>
		<a:midPointStop  offset="1" style="stop-color:#1E1816"/>
	</linearGradient>
	<rect x="2.743" y="28.618" clip-path="url(#SVGID_8_)" fill="url(#SVGID_9_)" width="7.793" height="10.37"/>
</g>
<polygon fill="#EE2327" points="27.75,19.964 30.559,26.544 12.359,26.544 "/>
<g>
	<defs>
		<polygon id="SVGID_10_" points="13.313,2.024 2.732,26.54 9.424,26.54 20.005,2.024 		"/>
	</defs>
	<clipPath id="SVGID_11_">
		<use xlink:href="#SVGID_10_"  overflow="visible"/>
	</clipPath>
	
		<linearGradient id="SVGID_12_" gradientUnits="userSpaceOnUse" x1="-520.5776" y1="438.502" x2="-520.4546" y2="438.502" gradientTransform="matrix(0 -199.1809 -199.1809 0 87352.75 -103662.625)">
		<stop  offset="0" style="stop-color:#EE2327"/>
		<stop  offset="0.1993" style="stop-color:#DD2226"/>
		<stop  offset="0.5232" style="stop-color:#BF1F23"/>
		<stop  offset="0.9291" style="stop-color:#931A1C"/>
		<stop  offset="1" style="stop-color:#8B181B"/>
		<a:midPointStop  offset="0" style="stop-color:#EE2327"/>
		<a:midPointStop  offset="0.6008" style="stop-color:#EE2327"/>
		<a:midPointStop  offset="1" style="stop-color:#8B181B"/>
	</linearGradient>
	<rect x="2.732" y="2.024" clip-path="url(#SVGID_11_)" fill="url(#SVGID_12_)" width="17.273" height="24.516"/>
</g>
<g>
	<defs>
		<polygon id="SVGID_13_" points="13.313,2.024 23.895,26.54 30.586,26.54 20.005,2.024 		"/>
	</defs>
	<clipPath id="SVGID_14_">
		<use xlink:href="#SVGID_13_"  overflow="visible"/>
	</clipPath>
	
		<linearGradient id="SVGID_15_" gradientUnits="userSpaceOnUse" x1="-518.3091" y1="440.0605" x2="-518.186" y2="440.0605" gradientTransform="matrix(169.7626 169.7626 169.7626 -169.7626 13295.25 162699.2656)">
		<stop  offset="0" style="stop-color:#EE2327"/>
		<stop  offset="0.1992" style="stop-color:#DD2226"/>
		<stop  offset="0.523" style="stop-color:#BF1F23"/>
		<stop  offset="0.9288" style="stop-color:#931A1C"/>
		<stop  offset="0.9996" style="stop-color:#8B181B"/>
		<stop  offset="1" style="stop-color:#8B181B"/>
		<a:midPointStop  offset="0" style="stop-color:#EE2327"/>
		<a:midPointStop  offset="0.6008" style="stop-color:#EE2327"/>
		<a:midPointStop  offset="0.9996" style="stop-color:#8B181B"/>
		<a:midPointStop  offset="0.5" style="stop-color:#8B181B"/>
		<a:midPointStop  offset="1" style="stop-color:#8B181B"/>
	</linearGradient>
	<polygon clip-path="url(#SVGID_14_)" fill="url(#SVGID_15_)" points="21.95,-6.612 42.846,14.282 21.95,35.177 1.056,14.282 	"/>
</g>
</svg>
