<?xml version="1.0" encoding="utf-8"?>
<!-- Generator: Adobe Illustrator 16.0.4, SVG Export Plug-In . SVG Version: 6.00 Build 0)  -->
<!DOCTYPE svg PUBLIC "-//W3C//DTD SVG 1.1//EN" "http://www.w3.org/Graphics/SVG/1.1/DTD/svg11.dtd" [
	<!ENTITY ns_flows "http://ns.adobe.com/Flows/1.0/">
	<!ENTITY ns_extend "http://ns.adobe.com/Extensibility/1.0/">
	<!ENTITY ns_ai "http://ns.adobe.com/AdobeIllustrator/10.0/">
	<!ENTITY ns_graphs "http://ns.adobe.com/Graphs/1.0/">
]>
<svg version="1.1" id="Layer_1" xmlns:x="&ns_extend;" xmlns:i="&ns_ai;" xmlns:graph="&ns_graphs;"
	 xmlns="http://www.w3.org/2000/svg" xmlns:xlink="http://www.w3.org/1999/xlink" xmlns:a="http://ns.adobe.com/AdobeSVGViewerExtensions/3.0/"
	 x="0px" y="0px" width="113px" height="35px" viewBox="0 0 113 35" enable-background="new 0 0 113 35" xml:space="preserve">
<g>
	<defs>
		<path id="SVGID_1_" d="M9.414,25.895v8.54h2.315v-7.331c0.268-0.174,0.846-0.259,1.247-0.259c1.291,0,1.557,0.688,1.557,1.853
			v5.696h2.36v-5.911c0-0.475-0.044-0.905-0.134-1.335c-0.163-0.633-0.468-1.196-1.024-1.598c-0.49-0.302-1.246-0.518-2.27-0.518
			C11.996,25.032,10.437,25.334,9.414,25.895"/>
	</defs>
	<clipPath id="SVGID_2_">
		<use xlink:href="#SVGID_1_"  overflow="visible"/>
	</clipPath>
	
		<linearGradient id="SVGID_3_" gradientUnits="userSpaceOnUse" x1="-484.8125" y1="440.7109" x2="-484.6987" y2="440.7109" gradientTransform="matrix(0 82.7393 82.7393 0 -36450.875 40138.125)">
		<stop  offset="0" style="stop-color:#524B48"/>
		<stop  offset="0.2706" style="stop-color:#49423F"/>
		<stop  offset="0.713" style="stop-color:#302A28"/>
		<stop  offset="0.9989" style="stop-color:#1D1715"/>
		<stop  offset="1" style="stop-color:#1D1715"/>
		<a:midPointStop  offset="0" style="stop-color:#524B48"/>
		<a:midPointStop  offset="0.5987" style="stop-color:#524B48"/>
		<a:midPointStop  offset="0.9989" style="stop-color:#1D1715"/>
		<a:midPointStop  offset="0.5" style="stop-color:#1D1715"/>
		<a:midPointStop  offset="1" style="stop-color:#1D1715"/>
	</linearGradient>
	<rect x="9.414" y="25.032" clip-path="url(#SVGID_2_)" fill="url(#SVGID_3_)" width="7.479" height="9.402"/>
</g>
<g>
	<defs>
		<path id="SVGID_4_" d="M20.659,31.507c0-0.948,0.356-1.25,1.157-1.423c0.667-0.173,1.233-0.173,1.944-0.216v2.631
			c-0.534,0.215-0.965,0.259-1.5,0.259C21.237,32.758,20.659,32.499,20.659,31.507 M18.863,25.496l0.009,1.831
			c0.998-0.33,2.041-0.479,3.152-0.479c1.247,0,1.736,0.475,1.736,1.553c-1.068,0.044-1.812,0.044-2.791,0.217
			c-1.87,0.26-2.582,1.294-2.582,2.933c0,1.983,1.312,3.009,3.605,3.02c1.692,0,3.013-0.303,4.037-0.861v-5.694
			c0-2.416-1.736-2.977-3.828-2.977C20.823,25.037,19.757,25.244,18.863,25.496"/>
	</defs>
	<clipPath id="SVGID_5_">
		<use xlink:href="#SVGID_4_"  overflow="visible"/>
	</clipPath>
	
		<linearGradient id="SVGID_6_" gradientUnits="userSpaceOnUse" x1="-484.8291" y1="439.832" x2="-484.7153" y2="439.832" gradientTransform="matrix(0 83.8784 83.8784 0 -36870.125 40691.75)">
		<stop  offset="0" style="stop-color:#524B48"/>
		<stop  offset="0.2706" style="stop-color:#49423F"/>
		<stop  offset="0.713" style="stop-color:#302A28"/>
		<stop  offset="0.9989" style="stop-color:#1D1715"/>
		<stop  offset="1" style="stop-color:#1D1715"/>
		<a:midPointStop  offset="0" style="stop-color:#524B48"/>
		<a:midPointStop  offset="0.5987" style="stop-color:#524B48"/>
		<a:midPointStop  offset="0.9989" style="stop-color:#1D1715"/>
		<a:midPointStop  offset="0.5" style="stop-color:#1D1715"/>
		<a:midPointStop  offset="1" style="stop-color:#1D1715"/>
	</linearGradient>
	<rect x="18.389" y="25.037" clip-path="url(#SVGID_5_)" fill="url(#SVGID_6_)" width="7.642" height="9.532"/>
</g>
<g>
	<defs>
		<path id="SVGID_7_" d="M0.442,29.687c0,2.502,0.49,4.874,3.65,4.874c1.247,0,2.744-0.243,3.545-0.46l-0.002-1.975
			c-0.579,0.13-1.643,0.38-2.223,0.38c-2.358,0-2.566-0.791-2.566-2.863c0-2.198,0.386-2.788,2.566-2.731
			c0.726,0.019,1.224,0.113,2.212,0.401l0.013-1.867c-0.667-0.174-1.942-0.46-3.01-0.46C1.156,24.985,0.442,26.668,0.442,29.687"/>
	</defs>
	<clipPath id="SVGID_8_">
		<use xlink:href="#SVGID_7_"  overflow="visible"/>
	</clipPath>
	
		<linearGradient id="SVGID_9_" gradientUnits="userSpaceOnUse" x1="-484.8296" y1="441.5039" x2="-484.7158" y2="441.5039" gradientTransform="matrix(0 84.2574 84.2574 0 -37196 40875.4375)">
		<stop  offset="0" style="stop-color:#524B48"/>
		<stop  offset="0.2706" style="stop-color:#49423F"/>
		<stop  offset="0.713" style="stop-color:#302A28"/>
		<stop  offset="0.9989" style="stop-color:#1D1715"/>
		<stop  offset="1" style="stop-color:#1D1715"/>
		<a:midPointStop  offset="0" style="stop-color:#524B48"/>
		<a:midPointStop  offset="0.5987" style="stop-color:#524B48"/>
		<a:midPointStop  offset="0.9989" style="stop-color:#1D1715"/>
		<a:midPointStop  offset="0.5" style="stop-color:#1D1715"/>
		<a:midPointStop  offset="1" style="stop-color:#1D1715"/>
	</linearGradient>
	<rect x="0.442" y="24.985" clip-path="url(#SVGID_8_)" fill="url(#SVGID_9_)" width="7.195" height="9.575"/>
</g>
<polygon fill="#ED1D24" points="23.533,16.994 26.126,23.069 9.321,23.069 "/>
<g>
	<defs>
		<polygon id="SVGID_10_" points="10.203,0.431 0.433,23.065 6.612,23.065 16.382,0.431 		"/>
	</defs>
	<clipPath id="SVGID_11_">
		<use xlink:href="#SVGID_10_"  overflow="visible"/>
	</clipPath>
	
		<linearGradient id="SVGID_12_" gradientUnits="userSpaceOnUse" x1="-486.5703" y1="436.6875" x2="-486.4565" y2="436.6875" gradientTransform="matrix(0 -199.1809 -199.1809 0 86988.375 -96892.375)">
		<stop  offset="0" style="stop-color:#ED1D24"/>
		<stop  offset="0.1713" style="stop-color:#E41B21"/>
		<stop  offset="0.4495" style="stop-color:#CC1419"/>
		<stop  offset="0.7982" style="stop-color:#A5090C"/>
		<stop  offset="1" style="stop-color:#8B0204"/>
		<a:midPointStop  offset="0" style="stop-color:#ED1D24"/>
		<a:midPointStop  offset="0.6008" style="stop-color:#ED1D24"/>
		<a:midPointStop  offset="1" style="stop-color:#8B0204"/>
	</linearGradient>
	<rect x="0.433" y="0.431" clip-path="url(#SVGID_11_)" fill="url(#SVGID_12_)" width="15.949" height="22.635"/>
</g>
<g>
	<defs>
		<polygon id="SVGID_13_" points="10.203,0.431 19.972,23.065 26.152,23.065 16.382,0.431 		"/>
	</defs>
	<clipPath id="SVGID_14_">
		<use xlink:href="#SVGID_13_"  overflow="visible"/>
	</clipPath>
	
		<linearGradient id="SVGID_15_" gradientUnits="userSpaceOnUse" x1="-484.4175" y1="437.9512" x2="-484.3037" y2="437.9512" gradientTransform="matrix(169.7626 169.7626 169.7626 -169.7626 7896.75 156585.7656)">
		<stop  offset="0" style="stop-color:#ED1D24"/>
		<stop  offset="0.1712" style="stop-color:#E41B21"/>
		<stop  offset="0.4493" style="stop-color:#CC1419"/>
		<stop  offset="0.7979" style="stop-color:#A5090C"/>
		<stop  offset="0.9996" style="stop-color:#8B0204"/>
		<stop  offset="1" style="stop-color:#8B0204"/>
		<a:midPointStop  offset="0" style="stop-color:#ED1D24"/>
		<a:midPointStop  offset="0.6008" style="stop-color:#ED1D24"/>
		<a:midPointStop  offset="0.9996" style="stop-color:#8B0204"/>
		<a:midPointStop  offset="0.5" style="stop-color:#8B0204"/>
		<a:midPointStop  offset="1" style="stop-color:#8B0204"/>
	</linearGradient>
	<polygon clip-path="url(#SVGID_14_)" fill="url(#SVGID_15_)" points="18.178,-7.544 37.47,11.748 18.178,31.04 -1.115,11.748 	"/>
</g>
</svg>
