<?xml version="1.0" encoding="UTF-8"?>
<svg id="Layer_1" data-name="Layer 1" xmlns="http://www.w3.org/2000/svg" viewBox="0 0 100.64 32">
  <defs>
    <style>
      .cls-1 {
        fill: #fff;
      }
    </style>
  </defs>
  <g>
    <path class="cls-1" d="m46.13,20.16v3.36h-2.61c-2.45,0-3.95-1.49-3.95-3.95v-4.16h-2.03v-.91l4.96-5.28h.8v3.25h2.77v2.93h-2.72v3.52c0,.8.48,1.28,1.28,1.28l1.49-.05h0Z"/>
    <path class="cls-1" d="m47.15,17.97c0-3.47,2.61-5.92,6.24-5.92s6.24,2.45,6.24,5.92-2.61,5.92-6.24,5.92-6.24-2.51-6.24-5.92Zm6.24,2.45c1.39,0,2.4-1.01,2.4-2.51s-1.01-2.51-2.4-2.51-2.4,1.01-2.4,2.51,1.01,2.51,2.4,2.51h0Z"/>
    <path class="cls-1" d="m73.07,8.43v15.09h-2.83l-.37-.8c-.91.75-2.08,1.17-3.36,1.17-3.41,0-5.81-2.45-5.81-5.92s2.45-5.92,5.81-5.92c1.01,0,1.97.27,2.77.75v-4.43l3.79.05h0Zm-3.52,9.55c0-1.44-1.07-2.56-2.51-2.56s-2.51,1.07-2.51,2.56,1.07,2.56,2.51,2.56,2.51-1.12,2.51-2.56Z"/>
    <path class="cls-1" d="m86.61,12.43v11.09h-2.93l-.32-.8c-.91.75-2.08,1.17-3.36,1.17-3.41,0-5.81-2.45-5.81-5.92s2.45-5.87,5.81-5.87c1.28,0,2.45.43,3.41,1.17l.37-.85h2.83Zm-3.63,5.55c0-1.44-1.07-2.51-2.51-2.51s-2.51,1.07-2.51,2.51,1.07,2.51,2.51,2.51,2.51-1.07,2.51-2.51Z"/>
    <path class="cls-1" d="m100.64,12.43l-4.64,10.61c-1.49,3.41-2.88,4.64-5.76,4.64h-1.28v-3.31h1.07c1.44,0,1.92-.37,2.4-1.76l-4.59-10.19h4.16l2.35,6.13,2.19-6.13h4.11Z"/>
  </g>
  <path class="cls-1" d="m16,0C7.15,0,0,7.15,0,16s7.15,16,16,16,16-7.15,16-16S24.85,0,16,0Zm3.04,10.13l2.56,4.75h-5.12c0-.05,2.56-4.75,2.56-4.75Zm-12.27,0l2.56,4.69h-5.07l2.51-4.69Zm-.11,10.24H1.23l2.72-5.01h5.71l-2.99,5.01h0Zm.43-10.77h0l5.71-.05,2.83,5.28h-5.65s-2.88-5.23-2.88-5.23Zm8.96,10.77h-2.88l-2.88-4.91-.05-.11h5.65l.16.27h0l2.61,4.75h-2.61Zm3.04-.27l-2.56-4.75h5.33l-2.77,4.75Zm.21-10.56h5.65l2.88,5.28h-5.65s-2.88-5.28-2.88-5.28Zm6.13,10.83l-2.56-4.27-.37-.69h5.65l2.72,5.01-5.44-.05h0Z"/>
</svg>