<?xml version="1.0" encoding="UTF-8"?>
<svg id="colour_code" data-name="colour code" xmlns="http://www.w3.org/2000/svg" viewBox="0 0 188.67 60">
  <defs>
    <style>
      .cls-1 {
        fill: #c33;
      }
    </style>
  </defs>
  <g>
    <path class="cls-1" d="M86.48,37.81v6.28h-4.93c-4.6,0-7.4-2.81-7.4-7.43v-7.85h-3.81v-1.67l9.32-9.92h1.47v6.08h5.23v5.52h-5.05v6.62c0,1.49,.9,2.39,2.41,2.39h2.75Z"/>
    <path class="cls-1" d="M88.42,33.68c0-6.45,4.88-11.08,11.66-11.08s11.66,4.63,11.66,11.08-4.9,11.08-11.66,11.08-11.66-4.66-11.66-11.08Zm11.66,4.65c2.61,0,4.49-1.9,4.49-4.65s-1.87-4.65-4.49-4.65-4.49,1.9-4.49,4.65,1.87,4.65,4.49,4.65h0Z"/>
    <path class="cls-1" d="M137.02,15.77v28.31h-5.3l-.68-1.54c-1.69,1.42-3.85,2.25-6.27,2.25-6.38,0-10.93-4.64-10.93-11.1s4.55-11.08,10.93-11.08c1.92,0,3.68,.52,5.17,1.44V15.77h7.08Zm-6.64,17.91c0-2.72-1.97-4.76-4.66-4.76s-4.66,2.04-4.66,4.76,1.97,4.76,4.66,4.76,4.66-2.04,4.66-4.76Z"/>
    <path class="cls-1" d="M162.41,23.26v20.8h-5.54l-.61-1.47c-1.7,1.38-3.86,2.17-6.28,2.17-6.36,0-10.91-4.64-10.91-11.1s4.55-11.03,10.91-11.03c2.45,0,4.64,.82,6.36,2.24l.73-1.61h5.34Zm-6.81,10.42c0-2.7-1.97-4.73-4.66-4.73s-4.66,2.03-4.66,4.73,1.97,4.74,4.66,4.74,4.66-2.03,4.66-4.74Z"/>
    <path class="cls-1" d="M188.67,23.28l-8.72,19.88c-2.8,6.37-5.38,8.67-10.75,8.67h-2.45v-6.16h1.97c2.74,0,3.57-.71,4.54-3.3l-8.6-19.08h7.79l4.41,11.46,4.11-11.46h7.7Z"/>
  </g>
  <path class="cls-1" d="M30,0C13.43,0,0,13.43,0,30s13.43,30,30,30,30-13.43,30-30S46.57,0,30,0Zm5.66,18.98l4.82,8.85h-9.57l4.75-8.85Zm-22.94,.07l4.78,8.78H7.96l4.76-8.78Zm-.27,19.18H2.32l5.08-9.38h10.65s-5.61,9.38-5.61,9.38Zm.84-20.25l.03-.06h10.63l5.32,9.91h-10.62l-5.36-9.85Zm16.79,20.25h-5.43l-5.36-9.22-.09-.16h10.61l.26,.49v-.02s4.91,8.9,4.91,8.9h-4.91Zm5.76-.57l-4.85-8.81h9.97l-5.12,8.81Zm.39-19.74h10.61l5.37,9.91h-10.59l-5.39-9.91Zm11.49,20.3l-4.8-8.03-.73-1.35h10.59l5.08,9.38h-10.13Z"/>
</svg>