<svg width="142" height="35" viewBox="0 0 142 35" xmlns="http://www.w3.org/2000/svg"><g fill="none"><path d="M15.378 35c-8.476 0-15.378-6.751-15.378-15.048 0-8.295 6.902-15.046 15.378-15.046 8.478 0 15.378 6.751 15.378 15.046 0 8.297-6.899 15.048-15.378 15.048zm0-25.334c-2.805 0-5.446 1.072-7.434 3.013-1.985 1.944-3.079 4.528-3.079 7.273 0 2.747 1.094 5.329 3.079 7.275 1.987 1.942 4.628 3.011 7.434 3.011 2.808 0 5.446-1.07 7.436-3.013 1.983-1.944 3.077-4.526 3.077-7.273 0-2.745-1.094-5.329-3.079-7.275-1.987-1.939-4.628-3.011-7.434-3.011zm16.381-7.197h1.287v1.237h-1.287v-1.237zm0-2.469h1.287v1.241h-1.287v-1.241zm-3.621 3.696h1.202v1.21h-1.202v-1.21z" fill="#f1af2a"/><path d="M25.871 5.89h1.117v1.096h-1.117v-1.096zm3.307-1.104h1.244v1.104h-1.244v-1.104zm-4.42.054h1.113v1.05h-1.113v-1.05zm3.311 1.05h1.109v1.096h-1.109v-1.096zm2.167-4.582h1.174v1.165h-1.174v-1.165zm-2.167 1.165h2.167v1.165h-2.167v-1.165zm-1.081 1.165h1.081v2.252h-1.081v-2.252zm0 3.348h1.081v2.329h-.956v.923h-.995v1.34h-.884l.004 1.113h-1.102v-1.123h-1.128v1.123h1.128v1.233h-1.115v1.281h-.931v1.104h-.887v1.227c-1.661 2.365-3.064 5.244-4.031 7.807-.455 1.213-2.721 1.027-3.227-.163-.954-2.259-1.945-5.09-5.087-8.509-1.369-1.398-.377-2.286.446-2.04 1.528.494 3.468 1.856 5.965 5.296.694-1.708 2.986-5.903 3.9-7.249h.815v-1.102h.741v-1.094h1.117v-1.719h1.179v1.096h1.111v-1.096h-1.111v-.981h.995v-.798h1.856v1.106h1.117v-1.106zm12.529 20.731c4.206 0 6.371-2.109 6.371-5.043 0-3.636-2.787-4.776-5.201-5.503-2.14-.63-3.41-.873-3.41-2.303 0-1.067.871-1.649 2.588-1.649 1.419 0 2.812.388 3.858.873l1.269-2.788c-1.17-.679-3.061-1.164-5.251-1.164-3.484 0-5.973 1.697-5.973 4.849 0 3.2 2.165 4.34 4.256 5.067 2.762.945 4.206 1.212 4.206 2.667 0 1.212-1.07 1.891-2.787 1.891-1.792 0-3.559-.63-4.729-1.43l-1.667 2.667c1.319.945 3.534 1.867 6.471 1.867zm11.241.339c-.548.897-1.195 1.309-2.588 1.309-.473 0-.772-.048-1.269-.097l-.398 2.57c.995.194 1.543.218 2.115.218 3.26 0 4.803-1.818 5.6-4.412l3.858-12.703h-3.658l-2.041 9.164-2.414-9.164h-3.907l4.704 13.116zm18.508-11.467c-.473-1.042-1.294-1.939-3.111-1.939-1.692 0-3.086.945-4.206 2.206l-.747-1.915h-2.339v12.534h3.783v-8.728c.597-.63 1.419-1.067 2.115-1.067.946 0 1.195.606 1.195 1.503v8.291h3.783v-8.776c.697-.606 1.468-1.018 2.115-1.018.946 0 1.195.606 1.195 1.503v8.291h3.783v-8.243c0-2.206-.697-4.582-3.584-4.582-1.543 0-2.912.824-3.982 1.939zm15.895 2.861c-2.986.412-4.654.921-5.724 1.697-.995.703-1.319 1.673-1.319 2.909 0 2.327 1.817 3.661 4.032 3.661 1.593 0 2.837-.727 3.783-1.576.025 0 .672 1.333.672 1.333h2.339v-8.121c0-2.958-1.717-4.703-5.177-4.703-1.891 0-3.509.436-5.226 1.406l1.294 2.424c1.344-.606 2.539-.97 3.609-.97 1.294 0 1.717.533 1.717 1.624v.315zm0 4.921c-.597.485-1.394.752-2.016.752-.747 0-1.319-.388-1.319-1.333 0-.461.075-.703.348-.994.398-.461 1.344-.752 2.986-1.067v2.643zm5.667 3.103h3.783v-8.728c.597-.63 1.468-1.067 2.215-1.067.995 0 1.294.606 1.294 1.503v8.291h3.783v-8.243c0-2.206-.622-4.582-3.683-4.582-1.792 0-3.186.945-4.305 2.206l-.747-1.915h-2.339v12.534zm13.879-10.012v6.231c0 2.933 1.543 4.024 4.057 4.024 1.294 0 2.29-.267 2.887-.461l-.448-2.546c-.423.121-1.07.242-1.319.242-1.145 0-1.394-.388-1.394-1.455v-6.037h2.738v-2.521h-2.738v-3.564h-3.086l-.647 3.564h-1.941v2.521h1.891zm11.266 4.824h7.765v-.97c0-3.661-1.692-6.667-5.699-6.667-3.808 0-5.973 2.836-5.973 6.691 0 3.952 2.439 6.376 6.197 6.376 2.663 0 3.907-.8 5.152-1.697l-1.493-2.327c-.921.509-1.916 1.091-3.385 1.091-1.667 0-2.389-.824-2.563-2.497zm0-2.158c.199-2.036.871-2.836 2.041-2.836 1.294 0 1.867 1.018 1.867 2.836h-3.907zm14.701 7.588c2.066 0 3.335-.63 4.455-1.721l-1.817-2.279c-.821.63-1.493.994-2.563.994-1.692 0-2.364-1.236-2.364-3.491 0-2.182.697-3.564 2.315-3.564 1.095 0 1.618.242 2.464.849l1.767-2.449c-1.369-1.164-2.688-1.406-4.256-1.406-4.082 0-6.197 2.933-6.197 6.618 0 3.636 1.891 6.449 6.197 6.449zm7.081.415h.569v-2.159h.659v-.458h-1.892v.458h.663v2.159zm1.588 0h.525v-1.381l-.015-.689.165.655.393 1.414h.495l.393-1.414.169-.655-.015.689v1.381h.547v-2.617h-.839l-.348 1.381c-.049.19-.105.514-.124.64-.019-.127-.082-.447-.135-.644l-.371-1.377h-.839v2.617z" fill="#fff"/></g></svg>